<mxfile host="app.diagrams.net" modified="2023-06-09T16:59:16.932Z" agent="Mozilla/5.0 (Windows NT 10.0; Win64; x64) AppleWebKit/537.36 (KHTML, like Gecko) Chrome/114.0.0.0 Safari/537.36" etag="t4XyQJkcLLMywwsBfw0j" version="21.3.8" type="device">
  <diagram name="Page-1" id="9rPdbRdP1Oi9_qpllsyf">
    <mxGraphModel dx="1050" dy="573" grid="1" gridSize="10" guides="1" tooltips="1" connect="1" arrows="1" fold="1" page="1" pageScale="1" pageWidth="850" pageHeight="1100" math="0" shadow="0">
      <root>
        <mxCell id="0" />
        <mxCell id="1" parent="0" />
        <mxCell id="SUHxLhJWNLtC6gkATQeP-1" value="ActivityDiagram_UC013" style="shape=umlFrame;whiteSpace=wrap;html=1;pointerEvents=0;width=170;height=30;" vertex="1" parent="1">
          <mxGeometry x="70" y="40" width="680" height="900" as="geometry" />
        </mxCell>
        <mxCell id="SUHxLhJWNLtC6gkATQeP-2" value="User" style="swimlane;whiteSpace=wrap" vertex="1" parent="1">
          <mxGeometry x="110" y="100" width="280" height="810" as="geometry" />
        </mxCell>
        <mxCell id="SUHxLhJWNLtC6gkATQeP-3" value="" style="ellipse;shape=startState;fillColor=#000000;strokeColor=#FFFFFF;" vertex="1" parent="SUHxLhJWNLtC6gkATQeP-2">
          <mxGeometry x="120" y="42" width="30" height="30" as="geometry" />
        </mxCell>
        <mxCell id="SUHxLhJWNLtC6gkATQeP-4" value="Go to KTDI Minimarket&#xa; System Homepage&#xa;and click &#xa;&quot;Check-Out Product&quot;" style="strokeColor=#FFFFFF;" vertex="1" parent="SUHxLhJWNLtC6gkATQeP-2">
          <mxGeometry x="60" y="110" width="150" height="80" as="geometry" />
        </mxCell>
        <mxCell id="SUHxLhJWNLtC6gkATQeP-5" value="Click the&#xa;&quot;Confirm Order&quot; button" style="" vertex="1" parent="SUHxLhJWNLtC6gkATQeP-2">
          <mxGeometry x="60" y="220" width="150" height="50" as="geometry" />
        </mxCell>
        <mxCell id="SUHxLhJWNLtC6gkATQeP-6" value="" style="endArrow=open;strokeColor=#FFFFFF;endFill=1;rounded=0" edge="1" parent="SUHxLhJWNLtC6gkATQeP-2" source="SUHxLhJWNLtC6gkATQeP-4" target="SUHxLhJWNLtC6gkATQeP-5">
          <mxGeometry relative="1" as="geometry" />
        </mxCell>
        <mxCell id="SUHxLhJWNLtC6gkATQeP-7" value="" style="endArrow=open;endFill=1;endSize=12;html=1;rounded=0;exitX=0.5;exitY=1;exitDx=0;exitDy=0;" edge="1" parent="SUHxLhJWNLtC6gkATQeP-2" source="SUHxLhJWNLtC6gkATQeP-3" target="SUHxLhJWNLtC6gkATQeP-4">
          <mxGeometry width="160" relative="1" as="geometry">
            <mxPoint x="295.5" y="272" as="sourcePoint" />
            <mxPoint x="455.5" y="272" as="targetPoint" />
          </mxGeometry>
        </mxCell>
        <mxCell id="SUHxLhJWNLtC6gkATQeP-31" value="Pay the amount &#xa;needed for the &#xa;product intended" style="" vertex="1" parent="SUHxLhJWNLtC6gkATQeP-2">
          <mxGeometry x="75" y="290" width="120" height="60" as="geometry" />
        </mxCell>
        <mxCell id="SUHxLhJWNLtC6gkATQeP-33" value="Click the&#xa;&quot;Track My Order&quot; button" style="" vertex="1" parent="SUHxLhJWNLtC6gkATQeP-2">
          <mxGeometry x="60" y="380" width="150" height="50" as="geometry" />
        </mxCell>
        <mxCell id="SUHxLhJWNLtC6gkATQeP-15" value="" style="ellipse;shape=endState;fillColor=#000000;strokeColor=#FFFFFF;" vertex="1" parent="SUHxLhJWNLtC6gkATQeP-2">
          <mxGeometry x="120" y="760" width="30" height="30" as="geometry" />
        </mxCell>
        <mxCell id="SUHxLhJWNLtC6gkATQeP-17" value="Go back to the&#xa;KTDI Minimarket&#xa; System Homepage" style="" vertex="1" parent="SUHxLhJWNLtC6gkATQeP-2">
          <mxGeometry x="55" y="680" width="160" height="60" as="geometry" />
        </mxCell>
        <mxCell id="SUHxLhJWNLtC6gkATQeP-16" value="" style="endArrow=open;strokeColor=#FFFFFF;endFill=1;rounded=0" edge="1" parent="SUHxLhJWNLtC6gkATQeP-2" source="SUHxLhJWNLtC6gkATQeP-17" target="SUHxLhJWNLtC6gkATQeP-15">
          <mxGeometry relative="1" as="geometry" />
        </mxCell>
        <mxCell id="SUHxLhJWNLtC6gkATQeP-35" value="" style="endArrow=open;endFill=1;endSize=12;html=1;rounded=0;exitX=0.5;exitY=1;exitDx=0;exitDy=0;entryX=0.5;entryY=0;entryDx=0;entryDy=0;" edge="1" parent="SUHxLhJWNLtC6gkATQeP-2" source="SUHxLhJWNLtC6gkATQeP-31" target="SUHxLhJWNLtC6gkATQeP-33">
          <mxGeometry width="160" relative="1" as="geometry">
            <mxPoint x="320" y="350" as="sourcePoint" />
            <mxPoint x="480" y="350" as="targetPoint" />
          </mxGeometry>
        </mxCell>
        <mxCell id="SUHxLhJWNLtC6gkATQeP-38" value="Enable&#xa;notifications" style="rhombus;fillColor=none;strokeColor=#FFFFFF;" vertex="1" parent="SUHxLhJWNLtC6gkATQeP-2">
          <mxGeometry x="75" y="480" width="130" height="67" as="geometry" />
        </mxCell>
        <mxCell id="SUHxLhJWNLtC6gkATQeP-39" value="Notifications will&#xa; be sent by ring or&#xa; vibrate" style="" vertex="1" parent="SUHxLhJWNLtC6gkATQeP-2">
          <mxGeometry x="10" y="560" width="100" height="59" as="geometry" />
        </mxCell>
        <mxCell id="SUHxLhJWNLtC6gkATQeP-42" value="" style="endArrow=open;endFill=1;endSize=12;html=1;rounded=0;exitX=0;exitY=0.5;exitDx=0;exitDy=0;entryX=0.5;entryY=0;entryDx=0;entryDy=0;" edge="1" parent="SUHxLhJWNLtC6gkATQeP-2" source="SUHxLhJWNLtC6gkATQeP-38" target="SUHxLhJWNLtC6gkATQeP-39">
          <mxGeometry width="160" relative="1" as="geometry">
            <mxPoint x="320" y="550" as="sourcePoint" />
            <mxPoint x="480" y="550" as="targetPoint" />
            <Array as="points">
              <mxPoint x="60" y="514" />
            </Array>
          </mxGeometry>
        </mxCell>
        <mxCell id="SUHxLhJWNLtC6gkATQeP-40" value="Notifications &#xa;will not be&#xa; sent and muted" style="" vertex="1" parent="SUHxLhJWNLtC6gkATQeP-2">
          <mxGeometry x="170" y="560" width="100" height="59" as="geometry" />
        </mxCell>
        <mxCell id="SUHxLhJWNLtC6gkATQeP-43" value="" style="endArrow=open;endFill=1;endSize=12;html=1;rounded=0;exitX=1;exitY=0.5;exitDx=0;exitDy=0;entryX=0.5;entryY=0;entryDx=0;entryDy=0;" edge="1" parent="SUHxLhJWNLtC6gkATQeP-2" source="SUHxLhJWNLtC6gkATQeP-38" target="SUHxLhJWNLtC6gkATQeP-40">
          <mxGeometry width="160" relative="1" as="geometry">
            <mxPoint x="320" y="550" as="sourcePoint" />
            <mxPoint x="480" y="550" as="targetPoint" />
            <Array as="points">
              <mxPoint x="220" y="514" />
            </Array>
          </mxGeometry>
        </mxCell>
        <mxCell id="SUHxLhJWNLtC6gkATQeP-41" value="" style="html=1;points=[];perimeter=orthogonalPerimeter;outlineConnect=0;targetShapes=umlLifeline;portConstraint=eastwest;newEdgeStyle={&quot;edgeStyle&quot;:&quot;elbowEdgeStyle&quot;,&quot;elbow&quot;:&quot;vertical&quot;,&quot;curved&quot;:0,&quot;rounded&quot;:0};direction=south;strokeColor=#F0F0F0;fillColor=#FFFFFF;" vertex="1" parent="SUHxLhJWNLtC6gkATQeP-2">
          <mxGeometry x="100" y="650" width="70" height="10" as="geometry" />
        </mxCell>
        <mxCell id="SUHxLhJWNLtC6gkATQeP-48" value="Yes" style="text;html=1;align=center;verticalAlign=middle;resizable=0;points=[];autosize=1;strokeColor=none;fillColor=none;" vertex="1" parent="SUHxLhJWNLtC6gkATQeP-2">
          <mxGeometry x="20" y="517" width="40" height="30" as="geometry" />
        </mxCell>
        <mxCell id="SUHxLhJWNLtC6gkATQeP-47" value="No" style="text;html=1;align=center;verticalAlign=middle;resizable=0;points=[];autosize=1;strokeColor=none;fillColor=none;" vertex="1" parent="SUHxLhJWNLtC6gkATQeP-2">
          <mxGeometry x="220" y="517" width="40" height="30" as="geometry" />
        </mxCell>
        <mxCell id="SUHxLhJWNLtC6gkATQeP-52" value="" style="endArrow=open;endFill=1;endSize=12;html=1;rounded=0;exitX=0.5;exitY=1;exitDx=0;exitDy=0;entryX=0;entryY=0.75;entryDx=0;entryDy=0;entryPerimeter=0;" edge="1" parent="SUHxLhJWNLtC6gkATQeP-2" source="SUHxLhJWNLtC6gkATQeP-39" target="SUHxLhJWNLtC6gkATQeP-41">
          <mxGeometry width="160" relative="1" as="geometry">
            <mxPoint x="320" y="550" as="sourcePoint" />
            <mxPoint x="480" y="550" as="targetPoint" />
            <Array as="points">
              <mxPoint x="60" y="630" />
              <mxPoint x="120" y="630" />
            </Array>
          </mxGeometry>
        </mxCell>
        <mxCell id="SUHxLhJWNLtC6gkATQeP-53" value="" style="endArrow=open;endFill=1;endSize=12;html=1;rounded=0;exitX=0.5;exitY=1;exitDx=0;exitDy=0;" edge="1" parent="SUHxLhJWNLtC6gkATQeP-2" source="SUHxLhJWNLtC6gkATQeP-40" target="SUHxLhJWNLtC6gkATQeP-41">
          <mxGeometry width="160" relative="1" as="geometry">
            <mxPoint x="210" y="620" as="sourcePoint" />
            <mxPoint x="480" y="550" as="targetPoint" />
            <Array as="points">
              <mxPoint x="220" y="630" />
              <mxPoint x="150" y="630" />
            </Array>
          </mxGeometry>
        </mxCell>
        <mxCell id="SUHxLhJWNLtC6gkATQeP-54" value="" style="endArrow=open;endFill=1;endSize=12;html=1;rounded=0;entryX=0.5;entryY=0;entryDx=0;entryDy=0;" edge="1" parent="SUHxLhJWNLtC6gkATQeP-2" source="SUHxLhJWNLtC6gkATQeP-41" target="SUHxLhJWNLtC6gkATQeP-17">
          <mxGeometry width="160" relative="1" as="geometry">
            <mxPoint x="320" y="550" as="sourcePoint" />
            <mxPoint x="480" y="550" as="targetPoint" />
          </mxGeometry>
        </mxCell>
        <mxCell id="SUHxLhJWNLtC6gkATQeP-8" value="System" style="swimlane;whiteSpace=wrap" vertex="1" parent="1">
          <mxGeometry x="390.5" y="99" width="319.5" height="811" as="geometry" />
        </mxCell>
        <mxCell id="SUHxLhJWNLtC6gkATQeP-9" value="Displays the details &#xa;of the product;&#xa; address of the delivered&#xa; product, product ID, &#xa;total amount paid" style="" vertex="1" parent="SUHxLhJWNLtC6gkATQeP-8">
          <mxGeometry x="87.25" y="201" width="145" height="90" as="geometry" />
        </mxCell>
        <mxCell id="SUHxLhJWNLtC6gkATQeP-36" value="Displays the option to&#xa; enable or disable&#xa; notifications for tracking&#xa; product details" style="" vertex="1" parent="SUHxLhJWNLtC6gkATQeP-8">
          <mxGeometry x="87.25" y="371" width="145" height="70" as="geometry" />
        </mxCell>
        <mxCell id="SUHxLhJWNLtC6gkATQeP-27" value="" style="endArrow=open;endFill=1;endSize=12;html=1;rounded=0;exitX=1;exitY=0.5;exitDx=0;exitDy=0;entryX=0;entryY=0.5;entryDx=0;entryDy=0;" edge="1" parent="1" source="SUHxLhJWNLtC6gkATQeP-5" target="SUHxLhJWNLtC6gkATQeP-9">
          <mxGeometry width="160" relative="1" as="geometry">
            <mxPoint x="405.5" y="372" as="sourcePoint" />
            <mxPoint x="565.5" y="372" as="targetPoint" />
          </mxGeometry>
        </mxCell>
        <mxCell id="SUHxLhJWNLtC6gkATQeP-32" value="" style="endArrow=open;endFill=1;endSize=12;html=1;rounded=0;exitX=0.5;exitY=1;exitDx=0;exitDy=0;entryX=1;entryY=0.5;entryDx=0;entryDy=0;" edge="1" parent="1" source="SUHxLhJWNLtC6gkATQeP-9" target="SUHxLhJWNLtC6gkATQeP-31">
          <mxGeometry width="160" relative="1" as="geometry">
            <mxPoint x="430" y="450" as="sourcePoint" />
            <mxPoint x="590" y="450" as="targetPoint" />
            <Array as="points">
              <mxPoint x="550" y="420" />
            </Array>
          </mxGeometry>
        </mxCell>
        <mxCell id="SUHxLhJWNLtC6gkATQeP-37" value="" style="endArrow=open;endFill=1;endSize=12;html=1;rounded=0;exitX=1;exitY=0.5;exitDx=0;exitDy=0;entryX=0;entryY=0.5;entryDx=0;entryDy=0;" edge="1" parent="1" source="SUHxLhJWNLtC6gkATQeP-33" target="SUHxLhJWNLtC6gkATQeP-36">
          <mxGeometry width="160" relative="1" as="geometry">
            <mxPoint x="430" y="550" as="sourcePoint" />
            <mxPoint x="590" y="550" as="targetPoint" />
          </mxGeometry>
        </mxCell>
        <mxCell id="SUHxLhJWNLtC6gkATQeP-44" value="" style="endArrow=open;endFill=1;endSize=12;html=1;rounded=0;entryX=0.5;entryY=0;entryDx=0;entryDy=0;exitX=0.5;exitY=1;exitDx=0;exitDy=0;" edge="1" parent="1" source="SUHxLhJWNLtC6gkATQeP-36" target="SUHxLhJWNLtC6gkATQeP-38">
          <mxGeometry width="160" relative="1" as="geometry">
            <mxPoint x="430" y="650" as="sourcePoint" />
            <mxPoint x="590" y="650" as="targetPoint" />
            <Array as="points">
              <mxPoint x="550" y="560" />
              <mxPoint x="250" y="560" />
            </Array>
          </mxGeometry>
        </mxCell>
      </root>
    </mxGraphModel>
  </diagram>
</mxfile>
